<mxfile host="Electron" agent="Mozilla/5.0 (X11; Linux x86_64) AppleWebKit/537.36 (KHTML, like Gecko) draw.io/26.0.16 Chrome/132.0.6834.196 Electron/34.2.0 Safari/537.36" version="26.0.16">
  <diagram name="PÃ¡gina-1" id="tbhhrolYnf2YLyF_AGn1">
    <mxGraphModel dx="1195" dy="725" grid="1" gridSize="10" guides="1" tooltips="1" connect="1" arrows="1" fold="1" page="1" pageScale="1" pageWidth="827" pageHeight="1169" math="0" shadow="0">
      <root>
        <mxCell id="0" />
        <mxCell id="1" parent="0" />
        <mxCell id="gUQwB867zqCJYkILIy9S-1" value="EXERC011 - SUPERMARKET CHECKOUT SIMULATION" style="text;html=1;align=left;verticalAlign=middle;whiteSpace=wrap;rounded=0;fontStyle=1" parent="1" vertex="1">
          <mxGeometry x="40" y="40" width="760" height="30" as="geometry" />
        </mxCell>
        <mxCell id="gUQwB867zqCJYkILIy9S-21" style="edgeStyle=orthogonalEdgeStyle;rounded=0;orthogonalLoop=1;jettySize=auto;html=1;exitX=0.5;exitY=1;exitDx=0;exitDy=0;exitPerimeter=0;entryX=0.5;entryY=0;entryDx=0;entryDy=0;" parent="1" source="gUQwB867zqCJYkILIy9S-3" target="gUQwB867zqCJYkILIy9S-4" edge="1">
          <mxGeometry relative="1" as="geometry" />
        </mxCell>
        <mxCell id="gUQwB867zqCJYkILIy9S-3" value="Start" style="strokeWidth=2;html=1;shape=mxgraph.flowchart.terminator;whiteSpace=wrap;" parent="1" vertex="1">
          <mxGeometry x="89.94" y="84" width="100" height="60" as="geometry" />
        </mxCell>
        <mxCell id="O1CfjgjV-Pr6YKnk9muc-27" style="edgeStyle=orthogonalEdgeStyle;rounded=0;orthogonalLoop=1;jettySize=auto;html=1;exitX=0.5;exitY=1;exitDx=0;exitDy=0;" parent="1" source="gUQwB867zqCJYkILIy9S-4" target="O1CfjgjV-Pr6YKnk9muc-1" edge="1">
          <mxGeometry relative="1" as="geometry" />
        </mxCell>
        <mxCell id="gUQwB867zqCJYkILIy9S-4" value="&lt;div&gt;&lt;br&gt;&lt;/div&gt;valor&lt;div&gt;qtd&lt;/div&gt;&lt;div&gt;total&lt;/div&gt;" style="shape=internalStorage;whiteSpace=wrap;html=1;dx=15;dy=15;rounded=1;arcSize=8;strokeWidth=2;" parent="1" vertex="1">
          <mxGeometry x="87.44" y="174" width="105" height="66" as="geometry" />
        </mxCell>
        <mxCell id="gUQwB867zqCJYkILIy9S-19" value="Stop" style="strokeWidth=2;html=1;shape=mxgraph.flowchart.terminator;whiteSpace=wrap;" parent="1" vertex="1">
          <mxGeometry x="250" y="1049" width="100" height="60" as="geometry" />
        </mxCell>
        <mxCell id="yedxSGEyuJ2SScnD80WB-33" style="edgeStyle=orthogonalEdgeStyle;rounded=0;orthogonalLoop=1;jettySize=auto;html=1;exitX=0.5;exitY=1;exitDx=0;exitDy=0;" edge="1" parent="1" source="O1CfjgjV-Pr6YKnk9muc-1" target="yedxSGEyuJ2SScnD80WB-2">
          <mxGeometry relative="1" as="geometry" />
        </mxCell>
        <mxCell id="O1CfjgjV-Pr6YKnk9muc-1" value="total = 0" style="rounded=1;whiteSpace=wrap;html=1;absoluteArcSize=1;arcSize=14;strokeWidth=2;" parent="1" vertex="1">
          <mxGeometry x="89.94" y="270" width="100" height="40" as="geometry" />
        </mxCell>
        <mxCell id="vgULqq0_0y--9K6N1HVh-1" value="&lt;div&gt;&lt;br&gt;&lt;/div&gt;&lt;div&gt;descricao&lt;/div&gt;" style="html=1;strokeWidth=2;shape=manualInput;whiteSpace=wrap;rounded=1;size=26;arcSize=11;" parent="1" vertex="1">
          <mxGeometry x="89.94" y="409" width="100" height="60" as="geometry" />
        </mxCell>
        <mxCell id="yedxSGEyuJ2SScnD80WB-31" style="edgeStyle=orthogonalEdgeStyle;rounded=0;orthogonalLoop=1;jettySize=auto;html=1;exitX=0.5;exitY=1;exitDx=0;exitDy=0;exitPerimeter=0;entryX=0.5;entryY=0;entryDx=0;entryDy=0;" edge="1" parent="1" source="yedxSGEyuJ2SScnD80WB-2" target="vgULqq0_0y--9K6N1HVh-1">
          <mxGeometry relative="1" as="geometry" />
        </mxCell>
        <mxCell id="yedxSGEyuJ2SScnD80WB-2" value="" style="verticalLabelPosition=bottom;verticalAlign=top;html=1;shape=mxgraph.flowchart.on-page_reference;" vertex="1" parent="1">
          <mxGeometry x="119.94" y="339" width="40" height="40" as="geometry" />
        </mxCell>
        <mxCell id="yedxSGEyuJ2SScnD80WB-7" style="edgeStyle=orthogonalEdgeStyle;rounded=0;orthogonalLoop=1;jettySize=auto;html=1;exitX=1;exitY=0.5;exitDx=0;exitDy=0;exitPerimeter=0;entryX=0.5;entryY=0;entryDx=0;entryDy=0;" edge="1" parent="1" source="yedxSGEyuJ2SScnD80WB-3" target="yedxSGEyuJ2SScnD80WB-4">
          <mxGeometry relative="1" as="geometry" />
        </mxCell>
        <mxCell id="yedxSGEyuJ2SScnD80WB-8" value="Yes" style="edgeLabel;html=1;align=center;verticalAlign=middle;resizable=0;points=[];" vertex="1" connectable="0" parent="yedxSGEyuJ2SScnD80WB-7">
          <mxGeometry x="-0.1259" relative="1" as="geometry">
            <mxPoint as="offset" />
          </mxGeometry>
        </mxCell>
        <mxCell id="yedxSGEyuJ2SScnD80WB-3" value="descricao != &quot;&quot;" style="strokeWidth=2;html=1;shape=mxgraph.flowchart.decision;whiteSpace=wrap;" vertex="1" parent="1">
          <mxGeometry x="90" y="499" width="100" height="100" as="geometry" />
        </mxCell>
        <mxCell id="yedxSGEyuJ2SScnD80WB-9" style="edgeStyle=orthogonalEdgeStyle;rounded=0;orthogonalLoop=1;jettySize=auto;html=1;exitX=0.5;exitY=1;exitDx=0;exitDy=0;" edge="1" parent="1" source="yedxSGEyuJ2SScnD80WB-4" target="yedxSGEyuJ2SScnD80WB-5">
          <mxGeometry relative="1" as="geometry" />
        </mxCell>
        <mxCell id="yedxSGEyuJ2SScnD80WB-4" value="&lt;br&gt;&lt;div&gt;valor&lt;/div&gt;" style="html=1;strokeWidth=2;shape=manualInput;whiteSpace=wrap;rounded=1;size=26;arcSize=11;" vertex="1" parent="1">
          <mxGeometry x="250" y="574" width="100" height="60" as="geometry" />
        </mxCell>
        <mxCell id="yedxSGEyuJ2SScnD80WB-10" style="edgeStyle=orthogonalEdgeStyle;rounded=0;orthogonalLoop=1;jettySize=auto;html=1;exitX=0.5;exitY=1;exitDx=0;exitDy=0;entryX=0.5;entryY=0;entryDx=0;entryDy=0;" edge="1" parent="1" source="yedxSGEyuJ2SScnD80WB-5" target="yedxSGEyuJ2SScnD80WB-6">
          <mxGeometry relative="1" as="geometry" />
        </mxCell>
        <mxCell id="yedxSGEyuJ2SScnD80WB-5" value="&lt;br&gt;&lt;div&gt;qtd&lt;/div&gt;" style="html=1;strokeWidth=2;shape=manualInput;whiteSpace=wrap;rounded=1;size=26;arcSize=11;" vertex="1" parent="1">
          <mxGeometry x="250" y="659" width="100" height="60" as="geometry" />
        </mxCell>
        <mxCell id="yedxSGEyuJ2SScnD80WB-6" value="total = total + (valor * qtd)" style="rounded=1;whiteSpace=wrap;html=1;absoluteArcSize=1;arcSize=14;strokeWidth=2;" vertex="1" parent="1">
          <mxGeometry x="250" y="759" width="100" height="40" as="geometry" />
        </mxCell>
        <mxCell id="yedxSGEyuJ2SScnD80WB-26" style="edgeStyle=orthogonalEdgeStyle;rounded=0;orthogonalLoop=1;jettySize=auto;html=1;exitX=0.5;exitY=1;exitDx=0;exitDy=0;exitPerimeter=0;" edge="1" parent="1" source="yedxSGEyuJ2SScnD80WB-11" target="yedxSGEyuJ2SScnD80WB-12">
          <mxGeometry relative="1" as="geometry" />
        </mxCell>
        <mxCell id="yedxSGEyuJ2SScnD80WB-11" value="" style="verticalLabelPosition=bottom;verticalAlign=top;html=1;shape=mxgraph.flowchart.on-page_reference;" vertex="1" parent="1">
          <mxGeometry x="120" y="810" width="40" height="40" as="geometry" />
        </mxCell>
        <mxCell id="yedxSGEyuJ2SScnD80WB-12" value="descricao != &quot;&quot;" style="strokeWidth=2;html=1;shape=mxgraph.flowchart.decision;whiteSpace=wrap;" vertex="1" parent="1">
          <mxGeometry x="90" y="870" width="100" height="100" as="geometry" />
        </mxCell>
        <mxCell id="yedxSGEyuJ2SScnD80WB-19" style="edgeStyle=orthogonalEdgeStyle;rounded=0;orthogonalLoop=1;jettySize=auto;html=1;exitX=0.5;exitY=1;exitDx=0;exitDy=0;exitPerimeter=0;" edge="1" parent="1" source="yedxSGEyuJ2SScnD80WB-16" target="gUQwB867zqCJYkILIy9S-19">
          <mxGeometry relative="1" as="geometry" />
        </mxCell>
        <mxCell id="yedxSGEyuJ2SScnD80WB-16" value="total" style="strokeWidth=2;html=1;shape=mxgraph.flowchart.display;whiteSpace=wrap;" vertex="1" parent="1">
          <mxGeometry x="250" y="950" width="100" height="60" as="geometry" />
        </mxCell>
        <mxCell id="yedxSGEyuJ2SScnD80WB-21" style="edgeStyle=orthogonalEdgeStyle;rounded=0;orthogonalLoop=1;jettySize=auto;html=1;exitX=1;exitY=0.5;exitDx=0;exitDy=0;exitPerimeter=0;entryX=0.5;entryY=0;entryDx=0;entryDy=0;entryPerimeter=0;" edge="1" parent="1" source="yedxSGEyuJ2SScnD80WB-12" target="yedxSGEyuJ2SScnD80WB-16">
          <mxGeometry relative="1" as="geometry" />
        </mxCell>
        <mxCell id="yedxSGEyuJ2SScnD80WB-24" value="No" style="edgeLabel;html=1;align=center;verticalAlign=middle;resizable=0;points=[];" vertex="1" connectable="0" parent="yedxSGEyuJ2SScnD80WB-21">
          <mxGeometry x="-0.32" y="-2" relative="1" as="geometry">
            <mxPoint y="-2" as="offset" />
          </mxGeometry>
        </mxCell>
        <mxCell id="yedxSGEyuJ2SScnD80WB-25" style="edgeStyle=orthogonalEdgeStyle;rounded=0;orthogonalLoop=1;jettySize=auto;html=1;exitX=0.5;exitY=1;exitDx=0;exitDy=0;exitPerimeter=0;entryX=0.5;entryY=0;entryDx=0;entryDy=0;entryPerimeter=0;" edge="1" parent="1" source="yedxSGEyuJ2SScnD80WB-3" target="yedxSGEyuJ2SScnD80WB-11">
          <mxGeometry relative="1" as="geometry" />
        </mxCell>
        <mxCell id="yedxSGEyuJ2SScnD80WB-27" value="No" style="edgeLabel;html=1;align=center;verticalAlign=middle;resizable=0;points=[];" vertex="1" connectable="0" parent="yedxSGEyuJ2SScnD80WB-25">
          <mxGeometry x="0.025" y="1" relative="1" as="geometry">
            <mxPoint as="offset" />
          </mxGeometry>
        </mxCell>
        <mxCell id="yedxSGEyuJ2SScnD80WB-28" style="edgeStyle=orthogonalEdgeStyle;rounded=0;orthogonalLoop=1;jettySize=auto;html=1;exitX=0.5;exitY=1;exitDx=0;exitDy=0;entryX=1;entryY=0.5;entryDx=0;entryDy=0;entryPerimeter=0;" edge="1" parent="1" source="yedxSGEyuJ2SScnD80WB-6" target="yedxSGEyuJ2SScnD80WB-11">
          <mxGeometry relative="1" as="geometry" />
        </mxCell>
        <mxCell id="yedxSGEyuJ2SScnD80WB-29" style="edgeStyle=orthogonalEdgeStyle;rounded=0;orthogonalLoop=1;jettySize=auto;html=1;exitX=0;exitY=0.5;exitDx=0;exitDy=0;exitPerimeter=0;entryX=0;entryY=0.5;entryDx=0;entryDy=0;entryPerimeter=0;" edge="1" parent="1" source="yedxSGEyuJ2SScnD80WB-12" target="yedxSGEyuJ2SScnD80WB-2">
          <mxGeometry relative="1" as="geometry" />
        </mxCell>
        <mxCell id="yedxSGEyuJ2SScnD80WB-30" value="Yes" style="edgeLabel;html=1;align=center;verticalAlign=middle;resizable=0;points=[];" vertex="1" connectable="0" parent="yedxSGEyuJ2SScnD80WB-29">
          <mxGeometry x="-0.9613" y="2" relative="1" as="geometry">
            <mxPoint x="-8" y="-2" as="offset" />
          </mxGeometry>
        </mxCell>
        <mxCell id="yedxSGEyuJ2SScnD80WB-32" style="edgeStyle=orthogonalEdgeStyle;rounded=0;orthogonalLoop=1;jettySize=auto;html=1;exitX=0.5;exitY=1;exitDx=0;exitDy=0;entryX=0.5;entryY=0;entryDx=0;entryDy=0;entryPerimeter=0;" edge="1" parent="1" source="vgULqq0_0y--9K6N1HVh-1" target="yedxSGEyuJ2SScnD80WB-3">
          <mxGeometry relative="1" as="geometry" />
        </mxCell>
      </root>
    </mxGraphModel>
  </diagram>
</mxfile>
